<mxfile host="app.diagrams.net" modified="2023-10-27T13:03:57.234Z" agent="Mozilla/5.0 (Windows NT 10.0; Win64; x64) AppleWebKit/537.36 (KHTML, like Gecko) Chrome/118.0.0.0 Safari/537.36 Edg/118.0.2088.69" version="21.7.5" etag="qX_WxchnTv5UebdTO7od" type="github">
  <diagram name="第 1 页" id="fLwNNgNCNl2ztyWhb2Ev">
    <mxGraphModel>
      <root>
        <mxCell id="0" />
        <mxCell id="1" parent="0" />
      </root>
    </mxGraphModel>
  </diagram>
</mxfile>
